<svg width="394" height="172" viewBox="0 0 394 172" fill="none" xmlns="http://www.w3.org/2000/svg">
<path d="M0 0V85.8615H296.538V172H394V0H0Z" fill="#FF267E"/>
<path d="M67.0049 41.2686H38.2093V32.9594H73.0962V21.6035H21.5966V64.5343H38.2093V52.9014H67.0049V41.2686Z" fill="#000056"/>
<path d="M158.652 50.1317L143.147 21.6035H124.042L148.961 64.5343H167.789L192.708 21.6035H173.88L158.652 50.1317Z" fill="#000056"/>
<path d="M246.146 42.6534C250.576 40.4377 252.514 37.114 252.514 33.5133C252.514 26.3121 246.423 21.6035 234.794 21.6035H197.138V64.5343H235.625C248.084 64.5343 253.899 59.5488 253.899 52.3475C253.899 48.1929 251.684 44.5922 246.146 42.6534ZM213.474 31.8515H232.025C234.24 31.8515 235.625 33.2364 235.625 35.1752C235.625 37.114 233.964 38.4988 232.025 38.4988H213.474V31.8515ZM233.41 54.2863H213.474V47.6389H233.41C235.625 47.6389 237.009 49.0238 237.009 50.9626C237.286 52.9014 235.625 54.2863 233.41 54.2863Z" fill="#000056"/>
<path d="M278.541 47.6389H307.336V38.2219H278.541V32.9594H310.382V21.6035H261.928V64.5343H311.213V52.9014H278.541V47.6389Z" fill="#000056"/>
<path d="M318.135 21.6035V32.9594H336.686V64.5343H353.576V32.9594H372.404V21.6035H318.135Z" fill="#000056"/>
<path d="M92.4782 21.6035L67.559 64.5343H85.2793L88.6019 58.1639H115.182L118.505 64.5343H137.056L112.137 21.6035H92.4782V21.6035ZM94.6933 47.085L101.892 33.2364L109.091 47.085H94.6933Z" fill="#000056"/>
<path d="M312.874 120.76L326.995 145.965H345.269L331.148 120.76H312.874Z" fill="#000056"/>
<path d="M359.39 120.76L345.269 145.965H363.266L377.387 120.76H359.39Z" fill="#000056"/>
<path d="M345.269 96.1094L331.148 120.76H359.39L345.269 96.1094Z" fill="#000056"/>
</svg>
