<svg width="64" height="64" viewBox="0 0 64 64" fill="none" xmlns="http://www.w3.org/2000/svg">
<path d="M20.6182 26.0954V43.7164H25.0897V20.2217H21.5398C21.0619 22.148 20.2768 22.8427 17 22.8427V26.0954H20.6182Z" fill="#EDEDED"/>
<path d="M40.2865 25.1158C40.2865 21.9579 38.7505 20 34.4155 20H33.7329C29.1931 20 27.8619 21.9579 27.8619 25.1158V27.1053C27.8619 29.9474 29.7051 30.8 30.2854 31.0526C29.7051 31.2737 27.5547 32.1579 27.5547 35.0947V38.6316C27.5547 41.6947 28.8859 44 33.5963 44H34.4838C39.0236 44 40.6279 41.6947 40.6279 38.6316V35.0947C40.6279 32.0947 38.375 31.2737 37.7606 31.0526C38.3409 30.8 40.2865 29.9474 40.2865 27.1053V25.1158ZM36.0198 27.3263C36.0198 28.6842 35.4395 29.4105 34.1083 29.4105C32.743 29.4105 32.1627 28.6842 32.1627 27.2947V25.4C32.1627 23.9789 32.7771 23.3789 34.0742 23.3789C35.4395 23.3789 36.0198 23.9789 36.0198 25.4V27.3263ZM36.0881 38.2211C36.0881 39.5789 35.4737 40.4 34.1083 40.4C32.6406 40.4 32.0945 39.5789 32.0945 38.2211V35.2211C32.0945 33.8632 32.6406 33.0421 34.0742 33.0421C35.5078 33.0421 36.0881 33.9263 36.0881 35.2211V38.2211Z" fill="#EDEDED"/>
<path d="M50.0002 32.7706V31.1409H47.2405V28.3887H45.2638V31.1409H42.5042V32.7706H45.2638V35.541H47.2405V32.7706H50.0002Z" fill="#EDEDED"/>
<circle cx="32" cy="32" r="31.5" stroke="#EDEDED"/>
</svg>
