<svg width="274" height="87" viewBox="0 0 274 87" fill="none" xmlns="http://www.w3.org/2000/svg">
<g opacity="0.8" clip-path="url(#clip0_6_1168)">
<path d="M158.947 68.7312V75.9873H160.54H162.132L162.184 73.1876C162.222 70.5549 162.235 70.3622 162.53 69.7715C163.25 68.3074 165.202 68.3459 165.625 69.8357C165.702 70.0797 165.754 71.5309 165.754 73.0592V75.846L166.178 75.9231C166.396 75.9616 167.141 75.9873 167.809 75.9616L169.029 75.9231V72.4556C169.016 70.1439 168.965 68.8083 168.862 68.4615C168.605 67.5882 168.194 67.0874 167.359 66.6764C166.691 66.3425 166.447 66.2911 165.561 66.2911C164.303 66.2911 163.635 66.5865 162.723 67.5112L162.094 68.1533L162.132 64.8142L162.171 61.4751H160.553H158.947V68.7312Z" fill="white"/>
<path d="M118.247 61.9503C117.669 62.2457 117.284 63.0805 117.399 63.7997C117.566 64.7757 118.491 65.4435 119.48 65.2894C120.135 65.1738 120.533 64.8656 120.816 64.2363C121.137 63.5171 120.995 62.7594 120.43 62.2072C119.942 61.7192 118.928 61.5907 118.247 61.9503Z" fill="white"/>
<path d="M91.0094 67.0612L91.8314 67.896H97.4564H103.082V67.0612V66.2265H96.6345H90.1875L91.0094 67.0612Z" fill="white"/>
<path d="M108.925 66.3553C107.64 66.6635 106.613 67.5625 106.151 68.7697C105.765 69.7843 105.675 71.6593 105.958 72.751C106.472 74.7801 107.795 75.8846 109.695 75.8974C110.8 75.9102 111.634 75.5763 112.431 74.7929C113.009 74.215 112.983 74.2022 113.034 75.2167C113.047 75.4608 113.073 75.7433 113.086 75.8204C113.099 75.9488 113.471 75.9873 114.511 75.9873H115.924V71.2997V66.6122H114.447H112.97V67.2543V67.8836L112.341 67.2543C111.455 66.3682 110.183 66.0343 108.925 66.3553ZM112.122 69.0394C112.662 69.3348 112.996 69.8485 113.099 70.5292C113.368 72.2886 112.2 73.6114 110.607 73.3674C109.271 73.1491 108.565 71.7492 108.989 70.1824C109.348 68.9239 110.915 68.3459 112.122 69.0394Z" fill="white"/>
<path d="M133.377 66.3937C131.553 66.9074 130.359 68.3201 130.05 70.2979C129.704 72.494 130.667 74.5488 132.465 75.4606C133.531 76 135.136 76.0771 136.51 75.6404L137.114 75.4478V74.1121C137.114 73.3801 137.101 72.7765 137.088 72.7765C137.063 72.7765 136.767 72.9178 136.42 73.0976C135.676 73.4828 135.175 73.4957 134.481 73.1746C133.415 72.6866 132.953 71.6849 133.248 70.4391C133.608 68.8723 134.969 68.2559 136.42 68.9879C136.767 69.1677 137.063 69.309 137.088 69.309C137.101 69.309 137.114 68.7311 137.114 68.0247V66.7405L136.639 66.535C135.997 66.2653 134.134 66.1754 133.377 66.3937Z" fill="white"/>
<path d="M141.032 66.4067C140.146 66.6892 139.696 66.9846 139.182 67.6396C138.412 68.6156 138.206 69.3605 138.219 71.1071C138.219 72.3272 138.27 72.7124 138.515 73.3289C138.938 74.4077 139.516 75.0883 140.364 75.525C140.98 75.8332 141.25 75.8974 142.033 75.8974C143.189 75.8974 144.011 75.5635 144.859 74.7287L145.462 74.138V75.0626V75.9873H146.875H148.288V71.2355V66.4838H146.875H145.462V67.1002C145.462 67.447 145.437 67.7552 145.398 67.7937C145.36 67.8194 145.026 67.5497 144.653 67.1901C144.165 66.7149 143.806 66.4838 143.382 66.381C142.624 66.1884 141.687 66.2012 141.032 66.4067ZM144.589 69.0138C145.372 69.4889 145.732 70.6191 145.462 71.7621C144.846 74.2921 141.224 73.6885 141.224 71.0429C141.224 70.4521 141.468 69.7329 141.777 69.3733C142.367 68.6798 143.716 68.5129 144.589 69.0138Z" fill="white"/>
<path d="M152.461 66.3938C150.933 66.9075 150.213 67.768 150.213 69.1036C150.213 70.542 151.01 71.274 153.257 71.8905C154.516 72.2372 154.837 72.4427 154.837 72.9179C154.837 73.4316 154.426 73.6756 153.527 73.6756C152.654 73.6756 151.767 73.4059 150.997 72.8794C150.689 72.6739 150.419 72.5326 150.38 72.5583C150.355 72.5968 150.201 73.1234 150.034 73.7398L149.738 74.8571L150.547 75.2424C152.795 76.2955 155.71 76.1157 156.917 74.87C157.495 74.2664 157.611 74.0224 157.726 73.2775C157.893 72.1602 157.367 71.0942 156.391 70.6062C156.134 70.465 155.415 70.2081 154.785 70.0155C153.463 69.5917 152.898 69.1935 153.116 68.8339C153.578 68.0634 155.107 68.1918 156.776 69.1422C156.815 69.1679 156.982 68.7184 157.148 68.1404C157.495 66.9461 157.534 67.0103 156.249 66.5993C155.196 66.2526 153.193 66.1498 152.461 66.3938Z" fill="white"/>
<path d="M171.918 67.0612V67.896H177.543H183.168L183.99 67.0612L184.812 66.2265H178.365H171.918V67.0612Z" fill="white"/>
<path d="M127.737 66.4708C126.902 66.7276 126.325 67.2028 125.528 68.3073C125.31 68.5898 125.31 68.577 125.297 67.6009V66.612H123.756H122.215V71.2996V76L123.859 75.9615L125.49 75.9229V73.6755C125.503 72.2371 125.567 71.2225 125.67 70.8629C126.003 69.7199 127.031 69.1163 128.495 69.2062L129.214 69.2448L129.304 68.41C129.355 67.9477 129.42 67.3055 129.458 66.9588L129.522 66.3552L128.79 66.368C128.392 66.368 127.917 66.4194 127.737 66.4708Z" fill="white"/>
<path d="M117.592 71.2997V75.9873H119.197H120.802V71.2997V66.6122H119.197H117.592V71.2997Z" fill="white"/>
<path d="M95.0526 71.1064L95.8104 71.877H99.4448H103.079V71.1064V70.3358H98.6871H94.2949L95.0526 71.1064Z" fill="white"/>
<path d="M171.918 71.1064V71.877H175.552H179.187L179.945 71.1064L180.702 70.3358H176.31H171.918V71.1064Z" fill="white"/>
<path d="M99.0884 75.1396L99.8975 75.9487L101.451 75.9359L103.018 75.923L103.057 75.114L103.095 74.3177H100.681H98.2793L99.0884 75.1396Z" fill="white"/>
<path d="M171.943 75.1139L171.981 75.9229L173.522 75.9615L175.064 76L175.898 75.1524L176.72 74.3176H174.319H171.904L171.943 75.1139Z" fill="white"/>
</g>
<g opacity="0.8">
<path fill-rule="evenodd" clip-rule="evenodd" d="M17.7118 17.0176C16.7664 17.0176 16 17.784 16 18.7293V39.2705C16 40.2159 16.7664 40.9823 17.7118 40.9823H50.2353C51.1807 40.9823 51.9471 40.2159 51.9471 39.2705V18.7293C51.9471 17.784 51.1807 17.0176 50.2353 17.0176H17.7118ZM33.7501 34.3355C33.1031 34.3355 32.5023 34.2585 31.9477 34.1044C31.3931 33.9504 30.9103 33.7244 30.4995 33.4266C30.0887 33.1184 29.7652 32.7487 29.5289 32.3173C29.303 31.8757 29.19 31.3776 29.19 30.823C29.19 30.2992 29.2978 29.8113 29.5135 29.3594C29.7292 28.8972 30.1246 28.4864 30.6998 28.1269C30.3095 27.8599 30.0117 27.5518 29.8062 27.2026C29.6008 26.8431 29.4981 26.3707 29.4981 25.7852C29.4981 25.3642 29.5957 24.9739 29.7908 24.6144C29.9962 24.2447 30.2838 23.9263 30.6536 23.6592C31.0233 23.3819 31.4701 23.1662 31.9939 23.0122C32.5177 22.8581 33.1031 22.7811 33.7501 22.7811C34.3972 22.7811 34.9826 22.8581 35.5064 23.0122C36.0302 23.1662 36.4719 23.3819 36.8313 23.6592C37.2011 23.9263 37.4835 24.2447 37.6786 24.6144C37.8841 24.9739 37.9868 25.3642 37.9868 25.7852C37.9868 26.3707 37.8841 26.8431 37.6786 27.2026C37.4732 27.5518 37.1805 27.8599 36.8005 28.1269C37.3757 28.4864 37.7711 28.8972 37.9868 29.3594C38.2024 29.8113 38.3103 30.2992 38.3103 30.823C38.3103 31.3776 38.1922 31.8757 37.956 32.3173C37.73 32.7487 37.4116 33.1184 37.0008 33.4266C36.59 33.7244 36.1072 33.9504 35.5526 34.1044C34.998 34.2585 34.3972 34.3355 33.7501 34.3355ZM33.7501 32.456C34.0685 32.456 34.3458 32.4098 34.5821 32.3173C34.8286 32.2249 35.034 32.1017 35.1983 31.9476C35.3626 31.7833 35.4859 31.5984 35.568 31.393C35.6605 31.1876 35.7067 30.9668 35.7067 30.7305C35.7067 30.2684 35.5372 29.8781 35.1983 29.5597C34.8696 29.231 34.3869 29.0667 33.7501 29.0667C33.1134 29.0667 32.6255 29.231 32.2866 29.5597C31.9579 29.8781 31.7936 30.2684 31.7936 30.7305C31.7936 30.9668 31.8347 31.1876 31.9168 31.393C32.0093 31.5984 32.1377 31.7833 32.302 31.9476C32.4663 32.1017 32.6666 32.2249 32.9028 32.3173C33.1493 32.4098 33.4318 32.456 33.7501 32.456ZM33.7501 27.4029C34.3253 27.4029 34.7567 27.2745 35.0442 27.0177C35.3318 26.7507 35.4756 26.422 35.4756 26.0317C35.4756 25.6312 35.3318 25.3025 35.0442 25.0458C34.7567 24.789 34.3253 24.6606 33.7501 24.6606C33.175 24.6606 32.7436 24.789 32.4561 25.0458C32.1685 25.3025 32.0247 25.6312 32.0247 26.0317C32.0247 26.422 32.1685 26.7507 32.4561 27.0177C32.7436 27.2745 33.175 27.4029 33.7501 27.4029ZM24.7987 34.1352V26.6326H22.2568V24.7685C22.7189 24.7582 23.1195 24.7171 23.4584 24.6452C23.8076 24.563 24.1055 24.4501 24.352 24.3063C24.5985 24.1625 24.8039 23.9828 24.9682 23.7671C25.1325 23.5411 25.2763 23.2741 25.3996 22.966H27.3253V34.1352H24.7987ZM42.4671 32.4235V30.027H39.9269V28.3614H42.4671V25.977H44.3244V28.3614H46.8527V30.027H44.3244V32.4235H42.4671Z" fill="white"/>
<path d="M105.947 19.9043H75.9471V22.5416H105.947V19.9043Z" fill="white"/>
<path d="M90.0103 25.4522L88.4501 32.7075H86.563L88.1234 25.4522H90.0103ZM97.9493 30.1371L98.9425 27.4126L99.5139 30.1371H97.9493ZM100.056 32.7075H101.801L100.276 25.4522H98.6664C98.3034 25.4522 97.998 25.6616 97.8626 25.9843L95.0309 32.7075H97.0128L97.4061 31.6241H99.8268L100.056 32.7075ZM95.1294 30.3389C95.1377 28.4243 92.4682 28.3181 92.4861 27.4627C92.492 27.2026 92.741 26.9255 93.2862 26.8548C93.5565 26.8202 94.302 26.7923 95.1473 27.1796L95.4779 25.6403C95.0239 25.4771 94.4396 25.3198 93.7128 25.3198C91.8473 25.3198 90.535 26.3055 90.5244 27.7179C90.5124 28.7625 91.4621 29.345 92.1758 29.6926C92.9116 30.048 93.1581 30.2766 93.1548 30.5941C93.1498 31.0809 92.5677 31.2965 92.0262 31.3046C91.0768 31.3194 90.5265 31.0494 90.088 30.846L89.7455 32.4364C90.1872 32.6375 91.001 32.8124 91.8434 32.8214C93.8266 32.8214 95.1235 31.8474 95.1294 30.3389ZM87.3139 25.4522L84.2563 32.7075H82.2619L80.7571 26.9174C80.6659 26.5612 80.5865 26.4304 80.3092 26.28C79.8552 26.0348 79.1062 25.8056 78.4473 25.6631L78.492 25.4522H81.7031C82.112 25.4522 82.48 25.7232 82.5736 26.1917L83.3685 30.3904L85.3314 25.4522H87.3139Z" fill="white"/>
<path d="M105.948 35.6001H75.9475V38.2377H105.948V35.6001Z" fill="white"/>
<rect x="73.4471" y="17.5" width="35" height="23" stroke="white"/>
<path fill-rule="evenodd" clip-rule="evenodd" d="M149.119 17.7365H134.74C132.49 17.7365 130.666 19.5605 130.666 21.8105V36.1893C130.666 38.4394 132.49 40.2633 134.74 40.2633H149.119C151.369 40.2633 153.193 38.4394 153.193 36.1893V21.8105C153.193 19.5605 151.369 17.7365 149.119 17.7365ZM134.74 17.0176C132.093 17.0176 129.947 19.1635 129.947 21.8105V36.1893C129.947 38.8364 132.093 40.9823 134.74 40.9823H149.119C151.766 40.9823 153.912 38.8364 153.912 36.1893V21.8105C153.912 19.1635 151.766 17.0176 149.119 17.0176H134.74Z" fill="white"/>
<path fill-rule="evenodd" clip-rule="evenodd" d="M144.479 23.8748L144.473 23.868C144.408 23.7901 144.354 23.7252 144.304 23.665C144.274 23.6292 144.246 23.5951 144.218 23.561C143.638 22.8507 142.952 22.2673 142.069 21.9875C139.617 21.2198 136.267 21.8593 134.794 24.8895C133.703 27.1296 133.68 29.4809 134.359 31.8356C134.977 33.979 136.297 35.5211 138.547 36.0201C140.863 36.5337 142.845 35.8818 144.389 34.0363C144.513 33.9112 144.643 33.7927 144.779 33.6811V36.1336H149.119V22.1695C148.837 22.1695 148.557 22.1692 148.278 22.1688H148.274C147.161 22.1674 146.069 22.166 144.978 22.1875C144.866 22.1875 144.69 22.4382 144.676 22.5843C144.648 22.8969 144.652 23.2122 144.657 23.5844V23.5847C144.66 23.7424 144.662 23.9104 144.662 24.0926H144.661C144.591 24.0088 144.531 23.9376 144.479 23.8748ZM138.687 28.8841C138.687 27.2285 139.363 26.1158 140.637 25.6774C143.054 24.8446 145.225 26.5766 144.945 29.1134C144.92 29.3382 144.887 29.5629 144.842 29.7776C144.504 31.4467 143.204 32.4313 141.575 32.2683C139.815 32.093 138.739 30.9544 138.694 29.2201C138.688 29.1367 138.688 29.0526 138.688 28.9683C138.688 28.9403 138.688 28.9122 138.687 28.8841Z" fill="white"/>
<path fill-rule="evenodd" clip-rule="evenodd" d="M184.019 35.2308C186.063 35.2308 187.951 34.5568 189.471 33.419C187.543 31.5851 186.341 28.9952 186.341 26.1243C186.341 23.2533 187.543 20.6633 189.471 18.8297C187.951 17.6916 186.063 17.0176 184.019 17.0176C178.989 17.0176 174.912 21.0948 174.912 26.1243C174.912 31.1536 178.989 35.2308 184.019 35.2308ZM196.406 17.0176C194.361 17.0176 192.474 17.6916 190.954 18.8297C192.882 20.6633 194.084 23.2533 194.084 26.1243C194.084 28.9952 192.882 31.5851 190.954 33.419C192.474 34.5568 194.361 35.2308 196.406 35.2308C201.435 35.2308 205.513 31.1536 205.513 26.1243C205.513 21.0948 201.435 17.0176 196.406 17.0176ZM193.125 26.1243C193.125 23.4868 192.004 21.1112 190.212 19.4482C188.421 21.1112 187.299 23.4868 187.299 26.1243C187.299 28.7616 188.421 31.1372 190.212 32.8002C192.004 31.1372 193.125 28.7616 193.125 26.1243Z" fill="#EDEDED"/>
<path d="M179.779 40.9265V39.2453C179.779 38.6009 179.388 38.1806 178.717 38.1806C178.381 38.1806 178.018 38.2927 177.766 38.6569C177.571 38.3487 177.291 38.1806 176.872 38.1806C176.592 38.1806 176.313 38.2646 176.089 38.5729V38.2366H175.502V40.9265H176.089V39.4415C176.089 38.9651 176.341 38.741 176.732 38.741C177.123 38.741 177.319 38.9931 177.319 39.4415V40.9265H177.906V39.4415C177.906 38.9651 178.186 38.741 178.549 38.741C178.94 38.741 179.136 38.9931 179.136 39.4415V40.9265H179.779ZM188.473 38.2366H187.522V37.424H186.935V38.2366H186.404V38.769H186.935V40.0018C186.935 40.6183 187.187 40.9825 187.858 40.9825C188.109 40.9825 188.389 40.8985 188.585 40.7864L188.417 40.282C188.249 40.3941 188.054 40.4221 187.914 40.4221C187.634 40.4221 187.522 40.254 187.522 39.9738V38.769H188.473V38.2366ZM193.449 38.1806C193.113 38.1806 192.89 38.3487 192.75 38.5729V38.2366H192.163V40.9265H192.75V39.4134C192.75 38.9651 192.946 38.7129 193.309 38.7129C193.421 38.7129 193.561 38.741 193.672 38.769L193.84 38.2086C193.728 38.1806 193.561 38.1806 193.449 38.1806ZM185.929 38.4608C185.649 38.2646 185.258 38.1806 184.839 38.1806C184.168 38.1806 183.721 38.5168 183.721 39.0492C183.721 39.4975 184.056 39.7497 184.643 39.8337L184.923 39.8617C185.23 39.9178 185.398 40.0018 185.398 40.1419C185.398 40.3381 185.174 40.4782 184.783 40.4782C184.391 40.4782 184.084 40.3381 183.888 40.198L183.609 40.6463C183.916 40.8705 184.336 40.9825 184.755 40.9825C185.538 40.9825 185.985 40.6183 185.985 40.1139C185.985 39.6376 185.621 39.3854 185.062 39.3014L184.783 39.2733C184.531 39.2453 184.336 39.1893 184.336 39.0212C184.336 38.825 184.531 38.7129 184.839 38.7129C185.174 38.7129 185.51 38.853 185.677 38.9371L185.929 38.4608ZM201.528 38.1806C201.192 38.1806 200.968 38.3487 200.829 38.5729V38.2366H200.242V40.9265H200.829V39.4134C200.829 38.9651 201.024 38.7129 201.388 38.7129C201.5 38.7129 201.639 38.741 201.751 38.769L201.919 38.2086C201.807 38.1806 201.639 38.1806 201.528 38.1806ZM194.036 39.5815C194.036 40.3941 194.595 40.9825 195.461 40.9825C195.853 40.9825 196.132 40.8985 196.412 40.6743L196.132 40.198C195.909 40.3661 195.685 40.4502 195.433 40.4502C194.958 40.4502 194.623 40.1139 194.623 39.5815C194.623 39.0772 194.958 38.741 195.433 38.7129C195.685 38.7129 195.909 38.797 196.132 38.9651L196.412 38.4888C196.132 38.2646 195.853 38.1806 195.461 38.1806C194.595 38.1806 194.036 38.769 194.036 39.5815ZM199.459 39.5815V38.2366H198.872V38.5729C198.676 38.3207 198.397 38.1806 198.033 38.1806C197.278 38.1806 196.691 38.769 196.691 39.5815C196.691 40.3941 197.278 40.9825 198.033 40.9825C198.425 40.9825 198.704 40.8424 198.872 40.5903V40.9265H199.459V39.5815ZM197.306 39.5815C197.306 39.1052 197.614 38.7129 198.117 38.7129C198.592 38.7129 198.928 39.0772 198.928 39.5815C198.928 40.0579 198.592 40.4502 198.117 40.4502C197.614 40.4221 197.306 40.0579 197.306 39.5815ZM190.29 38.1806C189.507 38.1806 188.948 38.741 188.948 39.5815C188.948 40.4221 189.507 40.9825 190.318 40.9825C190.709 40.9825 191.101 40.8704 191.408 40.6183L191.128 40.198C190.905 40.3661 190.625 40.4782 190.346 40.4782C189.982 40.4782 189.619 40.3101 189.535 39.8337H191.52C191.52 39.7497 191.52 39.6936 191.52 39.6096C191.548 38.741 191.045 38.1806 190.29 38.1806ZM190.29 38.6849C190.653 38.6849 190.905 38.9091 190.961 39.3294H189.563C189.619 38.9651 189.871 38.6849 190.29 38.6849ZM204.854 39.5815V37.1719H204.267V38.5729C204.071 38.3207 203.792 38.1806 203.428 38.1806C202.674 38.1806 202.087 38.769 202.087 39.5815C202.087 40.3941 202.674 40.9825 203.428 40.9825C203.82 40.9825 204.099 40.8424 204.267 40.5903V40.9265H204.854V39.5815ZM202.702 39.5815C202.702 39.1052 203.009 38.7129 203.512 38.7129C203.987 38.7129 204.323 39.0772 204.323 39.5815C204.323 40.0579 203.987 40.4502 203.512 40.4502C203.009 40.4221 202.702 40.0579 202.702 39.5815ZM183.078 39.5815V38.2366H182.491V38.5729C182.295 38.3207 182.015 38.1806 181.652 38.1806C180.897 38.1806 180.31 38.769 180.31 39.5815C180.31 40.3941 180.897 40.9825 181.652 40.9825C182.043 40.9825 182.323 40.8424 182.491 40.5903V40.9265H183.078V39.5815ZM180.897 39.5815C180.897 39.1052 181.205 38.7129 181.708 38.7129C182.183 38.7129 182.519 39.0772 182.519 39.5815C182.519 40.0579 182.183 40.4502 181.708 40.4502C181.205 40.4221 180.897 40.0579 180.897 39.5815Z" fill="#EDEDED"/>
<path d="M257.062 32.4541V32.084H256.97L256.862 32.3307L256.754 32.084H256.661V32.4541H256.723V32.1765L256.831 32.4233H256.908L257.016 32.1765V32.4541H257.062ZM256.445 32.4541V32.1457H256.569V32.084H256.26V32.1457H256.384V32.4541H256.445Z" fill="#EDEDED"/>
<path d="M246.098 34.0427H237.755V19.0532H246.098V34.0427Z" fill="#CBCACA"/>
<path d="M238.295 26.5479C238.295 23.5099 239.713 20.7958 241.934 19.0532C240.315 17.7732 238.264 17.0176 236.043 17.0176C230.784 17.0176 226.513 21.2893 226.513 26.5479C226.513 31.8066 230.784 36.0783 236.043 36.0783C238.264 36.0783 240.315 35.3227 241.934 34.0427C239.713 32.3001 238.295 29.5859 238.295 26.5479Z" fill="#8C8C8C"/>
<path d="M257.355 26.5479C257.355 31.8066 253.084 36.0783 247.825 36.0783C245.604 36.0783 243.553 35.3227 241.934 34.0427C244.155 32.3001 245.573 29.5859 245.573 26.5479C245.573 23.5099 244.155 20.7958 241.934 19.0532C243.553 17.7732 245.604 17.0176 247.825 17.0176C253.084 17.0176 257.355 21.2893 257.355 26.5479Z" fill="#EDEDED"/>
<path d="M248.905 38.2834C249.012 38.2834 249.182 38.2988 249.29 38.3451L249.12 38.8694C248.997 38.8231 248.889 38.8077 248.781 38.8077C248.426 38.8077 248.241 39.039 248.241 39.4554V40.8742H247.686V38.3451H248.226V38.6535C248.38 38.4222 248.596 38.2834 248.905 38.2834ZM246.869 38.8386H245.974V39.9797C245.974 40.2265 246.067 40.3961 246.345 40.3961C246.483 40.3961 246.668 40.3498 246.838 40.2573L246.992 40.7354C246.823 40.8588 246.545 40.9359 246.298 40.9359C245.651 40.9359 245.419 40.5812 245.419 39.9952V38.8386H244.91V38.3297H245.419V37.5586H245.974V38.3297H246.869V38.8386ZM239.821 39.3783C239.883 39.0082 240.099 38.7615 240.5 38.7615C240.855 38.7615 241.086 38.9774 241.148 39.3783H239.821ZM241.718 39.6096C241.718 38.8231 241.225 38.2834 240.515 38.2834C239.775 38.2834 239.251 38.8231 239.251 39.6096C239.251 40.4115 239.791 40.9359 240.546 40.9359C240.932 40.9359 241.271 40.8433 241.579 40.5812L241.302 40.1802C241.086 40.3498 240.824 40.4424 240.562 40.4424C240.207 40.4424 239.883 40.2727 239.806 39.8255H241.687C241.703 39.7484 241.718 39.6867 241.718 39.6096ZM244.139 38.9928C243.985 38.9002 243.677 38.7769 243.353 38.7769C243.044 38.7769 242.875 38.8848 242.875 39.0699C242.875 39.2395 243.06 39.2858 243.307 39.3166L243.569 39.3475C244.124 39.4246 244.448 39.6559 244.448 40.1031C244.448 40.5812 244.031 40.9359 243.291 40.9359C242.875 40.9359 242.489 40.8279 242.196 40.612L242.458 40.1802C242.643 40.319 242.921 40.4424 243.307 40.4424C243.677 40.4424 243.877 40.3344 243.877 40.134C243.877 39.9952 243.738 39.9181 243.43 39.8718L243.168 39.8409C242.597 39.7638 242.289 39.5017 242.289 39.1007C242.289 38.5918 242.705 38.2834 243.337 38.2834C243.738 38.2834 244.109 38.3759 244.371 38.5456L244.139 38.9928ZM250.925 38.7923C250.817 38.7923 250.709 38.8077 250.616 38.854C250.524 38.9002 250.431 38.9465 250.37 39.0236C250.308 39.1007 250.246 39.1778 250.2 39.2858C250.154 39.3783 250.138 39.5017 250.138 39.6096C250.138 39.733 250.154 39.8409 250.2 39.9335C250.246 40.026 250.292 40.1185 250.37 40.1956C250.447 40.2727 250.524 40.319 250.616 40.3653C250.709 40.4115 250.817 40.427 250.925 40.427C251.033 40.427 251.141 40.4115 251.233 40.3653C251.326 40.319 251.418 40.2727 251.48 40.1956C251.557 40.1185 251.603 40.0414 251.65 39.9335C251.696 39.8409 251.711 39.7176 251.711 39.6096C251.711 39.4863 251.696 39.3783 251.65 39.2858C251.603 39.1933 251.557 39.1007 251.48 39.0236C251.403 38.9465 251.326 38.9002 251.233 38.854C251.141 38.8231 251.033 38.7923 250.925 38.7923ZM250.925 38.2834C251.125 38.2834 251.31 38.3142 251.464 38.3913C251.634 38.453 251.773 38.5456 251.896 38.6689C252.02 38.7923 252.112 38.9311 252.189 39.0853C252.251 39.2549 252.297 39.4246 252.297 39.6096C252.297 39.7947 252.266 39.9797 252.189 40.134C252.128 40.3036 252.02 40.4424 251.896 40.5503C251.773 40.6737 251.634 40.7662 251.464 40.8279C251.295 40.8896 251.11 40.9359 250.925 40.9359C250.724 40.9359 250.539 40.905 250.385 40.8279C250.215 40.7662 250.077 40.6737 249.953 40.5503C249.83 40.427 249.737 40.2882 249.66 40.134C249.598 39.9643 249.552 39.7947 249.552 39.6096C249.552 39.4246 249.583 39.2395 249.66 39.0853C249.722 38.9157 249.83 38.7769 249.953 38.6689C250.077 38.5456 250.215 38.453 250.385 38.3913C250.539 38.3142 250.724 38.2834 250.925 38.2834ZM236.614 39.6096C236.614 39.1624 236.907 38.7923 237.385 38.7923C237.847 38.7923 238.14 39.147 238.14 39.6096C238.14 40.0723 237.832 40.4115 237.385 40.4115C236.907 40.4115 236.614 40.0568 236.614 39.6096ZM238.665 39.6096V38.3451H238.11V38.6535C237.94 38.4222 237.678 38.2834 237.308 38.2834C236.598 38.2834 236.043 38.8386 236.043 39.6096C236.043 40.3807 236.598 40.9359 237.308 40.9359C237.662 40.9359 237.925 40.7971 238.11 40.5657V40.8742H238.665V39.6096ZM235.565 40.8742V39.2858C235.565 38.6843 235.18 38.2834 234.563 38.2834C234.239 38.2834 233.9 38.3759 233.668 38.7306C233.499 38.453 233.221 38.2834 232.836 38.2834C232.573 38.2834 232.296 38.3605 232.095 38.6535V38.3451H231.54V40.8742H232.095V39.4708C232.095 39.039 232.342 38.7923 232.712 38.7923C233.082 38.7923 233.267 39.0236 233.267 39.4554V40.8588H233.822V39.4554C233.822 39.0236 234.085 38.7769 234.439 38.7769C234.809 38.7769 234.995 39.0082 234.995 39.44V40.8433H235.565V40.8742Z" fill="#EDEDED"/>
<path d="M252.883 40.6735V40.7352H252.945C252.96 40.7352 252.976 40.7352 252.976 40.7198C252.991 40.7198 252.991 40.7044 252.991 40.689C252.991 40.6735 252.991 40.6735 252.976 40.6735C252.976 40.6735 252.96 40.6581 252.945 40.6581H252.883V40.6735ZM252.945 40.6427C252.976 40.6427 252.991 40.6427 253.006 40.6581C253.022 40.6735 253.037 40.689 253.037 40.7198C253.037 40.7352 253.037 40.7506 253.022 40.7661C253.006 40.7815 252.991 40.7815 252.96 40.7815L253.037 40.874H252.976L252.898 40.7815H252.883V40.874H252.837V40.6427H252.945ZM252.929 40.9511C252.96 40.9511 252.976 40.9511 253.006 40.9357C253.037 40.9203 253.053 40.9049 253.068 40.8894C253.084 40.874 253.099 40.8586 253.114 40.8278C253.13 40.7969 253.13 40.7815 253.13 40.7506C253.13 40.7198 253.13 40.7044 253.114 40.6735C253.099 40.6427 253.084 40.6273 253.068 40.6119C253.053 40.5964 253.037 40.581 253.006 40.5656C252.991 40.5502 252.96 40.5502 252.929 40.5502C252.898 40.5502 252.883 40.5502 252.852 40.5656C252.821 40.581 252.806 40.5964 252.791 40.6119C252.775 40.6273 252.76 40.6581 252.744 40.6735C252.729 40.7044 252.729 40.7198 252.729 40.7506C252.729 40.7815 252.729 40.7969 252.744 40.8278C252.76 40.8586 252.775 40.874 252.791 40.8894C252.806 40.9049 252.837 40.9203 252.852 40.9357C252.883 40.9511 252.898 40.9511 252.929 40.9511ZM252.929 40.5039C252.96 40.5039 252.991 40.5039 253.022 40.5193C253.053 40.5347 253.084 40.5502 253.099 40.5656C253.114 40.581 253.145 40.6119 253.161 40.6427C253.176 40.6735 253.176 40.7044 253.176 40.7352C253.176 40.7661 253.176 40.7969 253.161 40.8278C253.145 40.8586 253.13 40.8894 253.099 40.9049C253.068 40.9203 253.053 40.9511 253.022 40.9665C252.991 40.982 252.96 40.982 252.929 40.982C252.898 40.982 252.852 40.982 252.821 40.9665C252.791 40.9511 252.76 40.9357 252.744 40.9049C252.729 40.8894 252.698 40.8586 252.683 40.8278C252.667 40.7969 252.667 40.7661 252.667 40.7352C252.667 40.7044 252.667 40.6735 252.683 40.6427C252.698 40.6119 252.713 40.581 252.744 40.5656C252.76 40.5502 252.791 40.5193 252.821 40.5193C252.852 40.5039 252.898 40.5039 252.929 40.5039Z" fill="#EDEDED"/>
</g>
<defs>
<clipPath id="clip0_6_1168">
<rect width="94.6245" height="14.525" fill="white" transform="translate(90.1875 61.4751)"/>
</clipPath>
</defs>
</svg>
