<svg width="386" height="24" viewBox="0 0 386 24" fill="none" xmlns="http://www.w3.org/2000/svg">
<g opacity="0.8" clip-path="url(#clip0_6_696)">
<path d="M349.646 10.4907V20.9814H351.884H354.122L354.195 16.9337C354.249 13.1273 354.267 12.8488 354.682 11.9947C355.693 9.87796 358.437 9.93366 359.032 12.0875C359.141 12.4403 359.213 14.5385 359.213 16.748V20.7772L359.808 20.8886C360.115 20.9443 361.162 20.9814 362.101 20.9443L363.816 20.8886V15.8753C363.798 12.5331 363.726 10.6021 363.581 10.1008C363.22 8.83817 362.642 8.11403 361.469 7.51986C360.53 7.0371 360.188 6.96283 358.942 6.96283C357.173 6.96283 356.234 7.38988 354.953 8.72676L354.068 9.65514L354.122 4.82754L354.177 -6.10352e-05H351.902H349.646V10.4907Z" fill="white"/>
<path d="M292.439 0.687299C291.627 1.11436 291.085 2.32126 291.248 3.36105C291.483 4.77219 292.782 5.73771 294.172 5.5149C295.093 5.34779 295.652 4.90217 296.049 3.99235C296.501 2.95256 296.302 1.85706 295.508 1.05865C294.822 0.35308 293.396 0.167403 292.439 0.687299Z" fill="white"/>
<path d="M254.155 8.0763L255.311 9.2832H263.217H271.123V8.0763V6.8694H262.062H253L254.155 8.0763Z" fill="white"/>
<path d="M279.336 7.05567C277.531 7.50129 276.087 8.80103 275.437 10.5464C274.896 12.0132 274.769 14.7241 275.166 16.3024C275.888 19.2361 277.748 20.8329 280.419 20.8515C281.972 20.87 283.145 20.3873 284.264 19.2546C285.076 18.4191 285.04 18.4005 285.113 19.8674C285.131 20.2202 285.167 20.6287 285.185 20.7401C285.203 20.9257 285.726 20.9814 287.188 20.9814H289.174V14.2042V7.42702H287.098H285.022V8.35541V9.26522L284.138 8.35541C282.892 7.07423 281.105 6.59147 279.336 7.05567ZM283.831 10.9363C284.589 11.3634 285.058 12.1061 285.203 13.0902C285.582 15.6339 283.939 17.5464 281.701 17.1936C279.824 16.878 278.831 14.8541 279.426 12.5888C279.932 10.7692 282.134 9.93366 283.831 10.9363Z" fill="white"/>
<path d="M313.705 7.11109C311.142 7.8538 309.463 9.89625 309.03 12.7557C308.542 15.9307 309.896 18.9016 312.423 20.2199C313.921 20.9997 316.178 21.1111 318.109 20.4798L318.958 20.2013V18.2703C318.958 17.2119 318.94 16.3392 318.922 16.3392C318.886 16.3392 318.47 16.5435 317.983 16.8034C316.936 17.3605 316.232 17.379 315.257 16.9148C313.759 16.2093 313.109 14.761 313.524 12.9599C314.03 10.6947 315.943 9.80341 317.983 10.8618C318.47 11.1217 318.886 11.326 318.922 11.326C318.94 11.326 318.958 10.4904 318.958 9.46919V7.61242L318.29 7.31534C317.387 6.92541 314.77 6.79544 313.705 7.11109Z" fill="white"/>
<path d="M324.464 7.12994C323.219 7.53843 322.587 7.96548 321.865 8.91244C320.782 10.3236 320.493 11.4005 320.511 13.9257C320.511 15.6896 320.583 16.2467 320.926 17.1379C321.522 18.6976 322.334 19.6817 323.526 20.313C324.392 20.7586 324.771 20.8515 325.872 20.8515C327.497 20.8515 328.652 20.3687 329.844 19.1618L330.692 18.3077V19.6446V20.9814H332.678H334.663V14.1114V7.24134H332.678H330.692V8.13259C330.692 8.63392 330.656 9.07955 330.602 9.13525C330.548 9.17239 330.078 8.78246 329.555 8.26257C328.869 7.57556 328.363 7.24134 327.768 7.0928C326.703 6.81429 325.385 6.83286 324.464 7.12994ZM329.464 10.8992C330.566 11.5862 331.071 13.2201 330.692 14.8727C329.825 18.5305 324.735 17.6578 324.735 13.8329C324.735 12.9788 325.078 11.939 325.511 11.4191C326.342 10.4164 328.237 10.175 329.464 10.8992Z" fill="white"/>
<path d="M340.529 7.11121C338.381 7.85392 337.37 9.09796 337.37 11.029C337.37 13.1086 338.489 14.1669 341.648 15.0582C343.417 15.5595 343.868 15.8566 343.868 16.5436C343.868 17.2863 343.291 17.6391 342.027 17.6391C340.8 17.6391 339.554 17.2492 338.471 16.4879C338.038 16.1908 337.659 15.9866 337.605 16.0237C337.568 16.0794 337.352 16.8407 337.117 17.7319L336.702 19.3473L337.839 19.9044C340.998 21.4269 345.096 21.167 346.793 19.3659C347.605 18.4932 347.767 18.1404 347.93 17.0635C348.164 15.4481 347.424 13.907 346.052 13.2014C345.691 12.9972 344.681 12.6258 343.796 12.3473C341.937 11.7346 341.143 11.159 341.449 10.6391C342.099 9.52501 344.247 9.71069 346.594 11.0847C346.648 11.1218 346.883 10.472 347.117 9.63642C347.605 7.90963 347.659 8.00246 345.854 7.4083C344.374 6.90697 341.558 6.75843 340.529 7.11121Z" fill="white"/>
<path d="M367.877 8.0763V9.2832H375.783H383.689L384.845 8.0763L386 6.8694H376.938H367.877V8.0763Z" fill="white"/>
<path d="M305.778 7.22276C304.605 7.59412 303.793 8.28112 302.673 9.87795C302.367 10.2864 302.367 10.2679 302.349 8.85672V7.42701H300.182H298.016V14.2042V21L300.327 20.9443L302.619 20.8886V17.6392C302.637 15.5597 302.728 14.0928 302.872 13.5729C303.341 11.9204 304.785 11.0477 306.843 11.1777L307.854 11.2334L307.98 10.0265C308.053 9.35805 308.143 8.42966 308.197 7.92834L308.287 7.05565L307.258 7.07422C306.699 7.07422 306.031 7.14849 305.778 7.22276Z" fill="white"/>
<path d="M291.518 14.2042V20.9814H293.775H296.031V14.2042V7.42702H293.775H291.518V14.2042Z" fill="white"/>
<path d="M259.838 13.925L260.903 15.0391H266.012H271.12V13.925V12.8109H264.947H258.773L259.838 13.925Z" fill="white"/>
<path d="M367.877 13.925V15.0391H372.985H378.094L379.159 13.925L380.224 12.8109H374.05H367.877V13.925Z" fill="white"/>
<path d="M265.511 19.756L266.648 20.9258L268.832 20.9072L271.034 20.8886L271.088 19.7189L271.143 18.5677H267.749H264.373L265.511 19.756Z" fill="white"/>
<path d="M367.912 19.7188L367.966 20.8886L370.132 20.9443L372.298 21L373.471 19.7745L374.627 18.5676H371.251H367.858L367.912 19.7188Z" fill="white"/>
</g>
<g opacity="0.8">
<path fill-rule="evenodd" clip-rule="evenodd" d="M1.71176 0.0175781C0.766383 0.0175781 0 0.783962 0 1.72934V22.2705C0 23.2159 0.766384 23.9823 1.71177 23.9823H34.2353C35.1807 23.9823 35.9471 23.2159 35.9471 22.2705V1.72934C35.9471 0.783961 35.1807 0.0175781 34.2353 0.0175781H1.71176ZM17.7501 17.3355C17.1031 17.3355 16.5023 17.2585 15.9477 17.1044C15.3931 16.9504 14.9103 16.7244 14.4995 16.4266C14.0887 16.1184 13.7652 15.7487 13.5289 15.3173C13.303 14.8757 13.19 14.3776 13.19 13.823C13.19 13.2992 13.2978 12.8113 13.5135 12.3594C13.7292 11.8972 14.1246 11.4864 14.6998 11.1269C14.3095 10.8599 14.0117 10.5518 13.8062 10.2026C13.6008 9.84311 13.4981 9.37067 13.4981 8.78524C13.4981 8.36415 13.5957 7.97387 13.7908 7.6144C13.9962 7.24466 14.2838 6.92627 14.6536 6.65923C15.0233 6.38193 15.4701 6.16624 15.9939 6.01219C16.5177 5.85813 17.1031 5.7811 17.7501 5.7811C18.3972 5.7811 18.9826 5.85813 19.5064 6.01219C20.0302 6.16624 20.4719 6.38193 20.8313 6.65923C21.2011 6.92627 21.4835 7.24466 21.6786 7.6144C21.8841 7.97387 21.9868 8.36415 21.9868 8.78524C21.9868 9.37067 21.8841 9.84311 21.6786 10.2026C21.4732 10.5518 21.1805 10.8599 20.8005 11.1269C21.3757 11.4864 21.7711 11.8972 21.9868 12.3594C22.2024 12.8113 22.3103 13.2992 22.3103 13.823C22.3103 14.3776 22.1922 14.8757 21.956 15.3173C21.73 15.7487 21.4116 16.1184 21.0008 16.4266C20.59 16.7244 20.1072 16.9504 19.5526 17.1044C18.998 17.2585 18.3972 17.3355 17.7501 17.3355ZM17.7501 15.456C18.0685 15.456 18.3458 15.4098 18.5821 15.3173C18.8286 15.2249 19.034 15.1017 19.1983 14.9476C19.3626 14.7833 19.4859 14.5984 19.568 14.393C19.6605 14.1876 19.7067 13.9668 19.7067 13.7305C19.7067 13.2684 19.5372 12.8781 19.1983 12.5597C18.8696 12.231 18.3869 12.0667 17.7501 12.0667C17.1134 12.0667 16.6255 12.231 16.2866 12.5597C15.9579 12.8781 15.7936 13.2684 15.7936 13.7305C15.7936 13.9668 15.8347 14.1876 15.9168 14.393C16.0093 14.5984 16.1377 14.7833 16.302 14.9476C16.4663 15.1017 16.6666 15.2249 16.9028 15.3173C17.1493 15.4098 17.4318 15.456 17.7501 15.456ZM17.7501 10.4029C18.3253 10.4029 18.7567 10.2745 19.0442 10.0177C19.3318 9.75068 19.4756 9.42202 19.4756 9.03174C19.4756 8.63119 19.3318 8.30253 19.0442 8.04576C18.7567 7.789 18.3253 7.66062 17.7501 7.66062C17.175 7.66062 16.7436 7.789 16.4561 8.04576C16.1685 8.30253 16.0247 8.63119 16.0247 9.03174C16.0247 9.42202 16.1685 9.75068 16.4561 10.0177C16.7436 10.2745 17.175 10.4029 17.7501 10.4029ZM8.79873 17.1352V9.63257H6.25676V7.76846C6.71894 7.75819 7.11949 7.7171 7.45842 7.64521C7.80762 7.56304 8.10546 7.45007 8.35196 7.30628C8.59845 7.16249 8.80387 6.98276 8.96819 6.76707C9.13252 6.54112 9.27631 6.27409 9.39956 5.96597H11.3253V17.1352H8.79873ZM26.4671 15.4235V13.027H23.9269V11.3614H26.4671V8.97696H28.3244V11.3614H30.8527V13.027H28.3244V15.4235H26.4671Z" fill="white"/>
<path d="M89.9471 2.9043H59.9471V5.54158H89.9471V2.9043Z" fill="white"/>
<path d="M74.0102 8.45223L72.45 15.7075H70.5629L72.1234 8.45223H74.0102ZM81.9493 13.1371L82.9425 10.4126L83.5139 13.1371H81.9493ZM84.0555 15.7075H85.8005L84.2761 8.45223H82.6664C82.3034 8.45223 81.9979 8.66163 81.8625 8.98426L79.0309 15.7075H81.0127L81.4061 14.6241H83.8268L84.0555 15.7075ZM79.1293 13.3389C79.1376 11.4243 76.4682 11.3181 76.4861 10.4627C76.4919 10.2026 76.741 9.92552 77.2862 9.85482C77.5564 9.82018 78.302 9.79226 79.1472 10.1796L79.4779 8.64031C79.0239 8.47713 78.4396 8.31982 77.7127 8.31982C75.8472 8.31982 74.535 9.30546 74.5244 10.7179C74.5123 11.7625 75.4621 12.345 76.1757 12.6926C76.9116 13.048 77.1581 13.2766 77.1548 13.5941C77.1498 14.0809 76.5676 14.2965 76.0262 14.3046C75.0767 14.3194 74.5265 14.0494 74.0879 13.846L73.7454 15.4364C74.1871 15.6375 75.001 15.8124 75.8434 15.8214C77.8265 15.8214 79.1235 14.8474 79.1293 13.3389ZM71.3138 8.45223L68.2563 15.7075H66.2618L64.7571 9.91737C64.6659 9.56124 64.5864 9.43042 64.3092 9.27998C63.8552 9.03479 63.1061 8.80563 62.4473 8.66306L62.4919 8.45223H65.703C66.112 8.45223 66.48 8.72318 66.5736 9.19167L67.3684 13.3904L69.3314 8.45223H71.3138Z" fill="white"/>
<path d="M89.9475 18.6001H59.9475V21.2377H89.9475V18.6001Z" fill="white"/>
<rect x="57.447" y="0.5" width="35" height="23" stroke="white"/>
<path fill-rule="evenodd" clip-rule="evenodd" d="M133.119 0.736519H118.74C116.49 0.736519 114.666 2.56051 114.666 4.81052V19.1893C114.666 21.4394 116.49 23.2633 118.74 23.2633H133.119C135.369 23.2633 137.193 21.4394 137.193 19.1893V4.81052C137.193 2.56051 135.369 0.736519 133.119 0.736519ZM118.74 0.0175781C116.093 0.0175781 113.947 2.16345 113.947 4.81052V19.1893C113.947 21.8364 116.093 23.9823 118.74 23.9823H133.119C135.766 23.9823 137.912 21.8364 137.912 19.1893V4.81052C137.912 2.16345 135.766 0.0175781 133.119 0.0175781H118.74Z" fill="white"/>
<path fill-rule="evenodd" clip-rule="evenodd" d="M128.479 6.87479L128.473 6.868C128.408 6.79013 128.354 6.72519 128.304 6.66495C128.274 6.62922 128.246 6.59514 128.218 6.561C127.638 5.85066 126.952 5.26732 126.069 4.98745C123.617 4.21979 120.267 4.85932 118.794 7.88952C117.703 10.1296 117.68 12.4809 118.359 14.8356C118.977 16.979 120.297 18.5211 122.547 19.0201C124.863 19.5337 126.845 18.8818 128.389 17.0363C128.513 16.9112 128.643 16.7927 128.779 16.6811V19.1336H133.119V5.16953C132.837 5.16953 132.557 5.16917 132.278 5.16881H132.274C131.161 5.16737 130.069 5.16597 128.978 5.18752C128.866 5.18752 128.69 5.43816 128.676 5.58428C128.648 5.89686 128.652 6.21221 128.657 6.58444V6.58471C128.66 6.74243 128.662 6.91036 128.662 7.09263H128.661C128.591 7.00881 128.531 6.9376 128.479 6.87479ZM122.687 11.8841C122.687 10.2285 123.363 9.11576 124.637 8.67742C127.054 7.84456 129.225 9.57658 128.945 12.1134C128.92 12.3382 128.887 12.5629 128.842 12.7776C128.504 14.4467 127.204 15.4313 125.576 15.2683C123.815 15.093 122.739 13.9544 122.694 12.2201C122.688 12.1367 122.688 12.0526 122.688 11.9683C122.688 11.9403 122.688 11.9122 122.687 11.8841Z" fill="white"/>
<path fill-rule="evenodd" clip-rule="evenodd" d="M168.018 18.2308C170.063 18.2308 171.951 17.5568 173.471 16.419C171.543 14.5851 170.341 11.9952 170.341 9.12433C170.341 6.25327 171.543 3.66327 173.471 1.82966C171.951 0.69158 170.063 0.0175781 168.018 0.0175781C162.989 0.0175781 158.912 4.09482 158.912 9.12433C158.912 14.1536 162.989 18.2308 168.018 18.2308ZM180.406 0.0175781C178.361 0.0175781 176.474 0.69158 174.954 1.82966C176.882 3.66327 178.084 6.25327 178.084 9.12433C178.084 11.9952 176.882 14.5851 174.954 16.419C176.474 17.5568 178.361 18.2308 180.406 18.2308C185.435 18.2308 189.513 14.1536 189.513 9.12433C189.513 4.09482 185.435 0.0175781 180.406 0.0175781ZM177.125 9.12433C177.125 6.48683 176.004 4.1112 174.212 2.4482C172.421 4.1112 171.299 6.48683 171.299 9.12433C171.299 11.7616 172.421 14.1372 174.212 15.8002C176.004 14.1372 177.125 11.7616 177.125 9.12433Z" fill="#EDEDED"/>
<path d="M163.779 23.9265V22.2453C163.779 21.6009 163.388 21.1806 162.717 21.1806C162.381 21.1806 162.018 21.2927 161.766 21.6569C161.571 21.3487 161.291 21.1806 160.872 21.1806C160.592 21.1806 160.313 21.2646 160.089 21.5729V21.2366H159.502V23.9265H160.089V22.4415C160.089 21.9651 160.341 21.741 160.732 21.741C161.123 21.741 161.319 21.9931 161.319 22.4415V23.9265H161.906V22.4415C161.906 21.9651 162.186 21.741 162.549 21.741C162.94 21.741 163.136 21.9931 163.136 22.4415V23.9265H163.779ZM172.473 21.2366H171.522V20.424H170.935V21.2366H170.404V21.769H170.935V23.0018C170.935 23.6183 171.187 23.9825 171.858 23.9825C172.109 23.9825 172.389 23.8985 172.585 23.7864L172.417 23.282C172.249 23.3941 172.053 23.4221 171.914 23.4221C171.634 23.4221 171.522 23.254 171.522 22.9738V21.769H172.473V21.2366ZM177.449 21.1806C177.113 21.1806 176.89 21.3487 176.75 21.5729V21.2366H176.163V23.9265H176.75V22.4134C176.75 21.9651 176.945 21.7129 177.309 21.7129C177.421 21.7129 177.56 21.741 177.672 21.769L177.84 21.2086C177.728 21.1806 177.56 21.1806 177.449 21.1806ZM169.929 21.4608C169.649 21.2646 169.258 21.1806 168.839 21.1806C168.168 21.1806 167.721 21.5168 167.721 22.0492C167.721 22.4975 168.056 22.7497 168.643 22.8337L168.923 22.8617C169.23 22.9178 169.398 23.0018 169.398 23.1419C169.398 23.3381 169.174 23.4782 168.783 23.4782C168.391 23.4782 168.084 23.3381 167.888 23.198L167.609 23.6463C167.916 23.8705 168.336 23.9825 168.755 23.9825C169.538 23.9825 169.985 23.6183 169.985 23.1139C169.985 22.6376 169.621 22.3854 169.062 22.3014L168.783 22.2733C168.531 22.2453 168.336 22.1893 168.336 22.0212C168.336 21.825 168.531 21.7129 168.839 21.7129C169.174 21.7129 169.51 21.853 169.677 21.9371L169.929 21.4608ZM185.527 21.1806C185.192 21.1806 184.968 21.3487 184.829 21.5729V21.2366H184.242V23.9265H184.829V22.4134C184.829 21.9651 185.024 21.7129 185.388 21.7129C185.499 21.7129 185.639 21.741 185.751 21.769L185.919 21.2086C185.807 21.1806 185.639 21.1806 185.527 21.1806ZM178.036 22.5815C178.036 23.3941 178.595 23.9825 179.461 23.9825C179.853 23.9825 180.132 23.8985 180.412 23.6743L180.132 23.198C179.909 23.3661 179.685 23.4502 179.433 23.4502C178.958 23.4502 178.623 23.1139 178.623 22.5815C178.623 22.0772 178.958 21.741 179.433 21.7129C179.685 21.7129 179.909 21.797 180.132 21.9651L180.412 21.4888C180.132 21.2646 179.853 21.1806 179.461 21.1806C178.595 21.1806 178.036 21.769 178.036 22.5815ZM183.459 22.5815V21.2366H182.872V21.5729C182.676 21.3207 182.397 21.1806 182.033 21.1806C181.278 21.1806 180.691 21.769 180.691 22.5815C180.691 23.3941 181.278 23.9825 182.033 23.9825C182.425 23.9825 182.704 23.8424 182.872 23.5903V23.9265H183.459V22.5815ZM181.306 22.5815C181.306 22.1052 181.614 21.7129 182.117 21.7129C182.592 21.7129 182.928 22.0772 182.928 22.5815C182.928 23.0579 182.592 23.4502 182.117 23.4502C181.614 23.4221 181.306 23.0579 181.306 22.5815ZM174.29 21.1806C173.507 21.1806 172.948 21.741 172.948 22.5815C172.948 23.4221 173.507 23.9825 174.318 23.9825C174.709 23.9825 175.1 23.8704 175.408 23.6183L175.128 23.198C174.905 23.3661 174.625 23.4782 174.346 23.4782C173.982 23.4782 173.619 23.3101 173.535 22.8337H175.52C175.52 22.7497 175.52 22.6936 175.52 22.6096C175.548 21.741 175.045 21.1806 174.29 21.1806ZM174.29 21.6849C174.653 21.6849 174.905 21.9091 174.961 22.3294H173.563C173.619 21.9651 173.87 21.6849 174.29 21.6849ZM188.854 22.5815V20.1719H188.267V21.5729C188.071 21.3207 187.792 21.1806 187.428 21.1806C186.674 21.1806 186.087 21.769 186.087 22.5815C186.087 23.3941 186.674 23.9825 187.428 23.9825C187.82 23.9825 188.099 23.8424 188.267 23.5903V23.9265H188.854V22.5815ZM186.702 22.5815C186.702 22.1052 187.009 21.7129 187.512 21.7129C187.987 21.7129 188.323 22.0772 188.323 22.5815C188.323 23.0579 187.987 23.4502 187.512 23.4502C187.009 23.4221 186.702 23.0579 186.702 22.5815ZM167.078 22.5815V21.2366H166.491V21.5729C166.295 21.3207 166.015 21.1806 165.652 21.1806C164.897 21.1806 164.31 21.769 164.31 22.5815C164.31 23.3941 164.897 23.9825 165.652 23.9825C166.043 23.9825 166.323 23.8424 166.491 23.5903V23.9265H167.078V22.5815ZM164.897 22.5815C164.897 22.1052 165.205 21.7129 165.708 21.7129C166.183 21.7129 166.518 22.0772 166.518 22.5815C166.518 23.0579 166.183 23.4502 165.708 23.4502C165.205 23.4221 164.897 23.0579 164.897 22.5815Z" fill="#EDEDED"/>
<path d="M241.062 15.4541V15.084H240.97L240.862 15.3307L240.754 15.084H240.661V15.4541H240.723V15.1765L240.831 15.4233H240.908L241.016 15.1765V15.4541H241.062ZM240.445 15.4541V15.1457H240.569V15.084H240.26V15.1457H240.384V15.4541H240.445Z" fill="#EDEDED"/>
<path d="M230.098 17.0427H221.755V2.05322H230.098V17.0427Z" fill="#CBCACA"/>
<path d="M222.295 9.54794C222.295 6.50995 223.713 3.7958 225.934 2.05319C224.315 0.773222 222.264 0.0175781 220.043 0.0175781C214.784 0.0175781 210.513 4.28928 210.513 9.54794C210.513 14.8066 214.784 19.0783 220.043 19.0783C222.264 19.0783 224.315 18.3227 225.934 17.0427C223.713 15.3001 222.295 12.5859 222.295 9.54794Z" fill="#8C8C8C"/>
<path d="M241.355 9.54794C241.355 14.8066 237.084 19.0783 231.825 19.0783C229.604 19.0783 227.553 18.3227 225.934 17.0427C228.155 15.3001 229.573 12.5859 229.573 9.54794C229.573 6.50995 228.155 3.7958 225.934 2.05319C227.553 0.773222 229.604 0.0175781 231.825 0.0175781C237.084 0.0175781 241.355 4.28928 241.355 9.54794Z" fill="#EDEDED"/>
<path d="M232.905 21.2834C233.012 21.2834 233.182 21.2988 233.29 21.3451L233.12 21.8694C232.997 21.8231 232.889 21.8077 232.781 21.8077C232.426 21.8077 232.241 22.039 232.241 22.4554V23.8742H231.686V21.3451H232.226V21.6535C232.38 21.4222 232.596 21.2834 232.905 21.2834ZM230.869 21.8386H229.975V22.9797C229.975 23.2265 230.067 23.3961 230.345 23.3961C230.483 23.3961 230.668 23.3498 230.838 23.2573L230.992 23.7354C230.823 23.8588 230.545 23.9359 230.298 23.9359C229.651 23.9359 229.419 23.5812 229.419 22.9952V21.8386H228.91V21.3297H229.419V20.5586H229.975V21.3297H230.869V21.8386ZM223.821 22.3783C223.883 22.0082 224.099 21.7615 224.5 21.7615C224.855 21.7615 225.086 21.9774 225.148 22.3783H223.821ZM225.718 22.6096C225.718 21.8231 225.225 21.2834 224.515 21.2834C223.775 21.2834 223.251 21.8231 223.251 22.6096C223.251 23.4115 223.791 23.9359 224.546 23.9359C224.932 23.9359 225.271 23.8433 225.579 23.5812L225.302 23.1802C225.086 23.3498 224.824 23.4424 224.562 23.4424C224.207 23.4424 223.883 23.2727 223.806 22.8255H225.687C225.703 22.7484 225.718 22.6867 225.718 22.6096ZM228.139 21.9928C227.985 21.9002 227.677 21.7769 227.353 21.7769C227.044 21.7769 226.875 21.8848 226.875 22.0699C226.875 22.2395 227.06 22.2858 227.307 22.3166L227.569 22.3475C228.124 22.4246 228.448 22.6559 228.448 23.1031C228.448 23.5812 228.031 23.9359 227.291 23.9359C226.875 23.9359 226.489 23.8279 226.196 23.612L226.458 23.1802C226.644 23.319 226.921 23.4424 227.307 23.4424C227.677 23.4424 227.877 23.3344 227.877 23.134C227.877 22.9952 227.738 22.9181 227.43 22.8718L227.168 22.8409C226.597 22.7638 226.289 22.5017 226.289 22.1007C226.289 21.5918 226.705 21.2834 227.337 21.2834C227.738 21.2834 228.109 21.3759 228.371 21.5456L228.139 21.9928ZM234.925 21.7923C234.817 21.7923 234.709 21.8077 234.616 21.854C234.524 21.9002 234.431 21.9465 234.37 22.0236C234.308 22.1007 234.246 22.1778 234.2 22.2858C234.154 22.3783 234.138 22.5017 234.138 22.6096C234.138 22.733 234.154 22.8409 234.2 22.9335C234.246 23.026 234.292 23.1185 234.37 23.1956C234.447 23.2727 234.524 23.319 234.616 23.3653C234.709 23.4115 234.817 23.427 234.925 23.427C235.033 23.427 235.141 23.4115 235.233 23.3653C235.326 23.319 235.418 23.2727 235.48 23.1956C235.557 23.1185 235.603 23.0414 235.65 22.9335C235.696 22.8409 235.711 22.7176 235.711 22.6096C235.711 22.4863 235.696 22.3783 235.65 22.2858C235.603 22.1933 235.557 22.1007 235.48 22.0236C235.403 21.9465 235.326 21.9002 235.233 21.854C235.141 21.8231 235.033 21.7923 234.925 21.7923ZM234.925 21.2834C235.125 21.2834 235.31 21.3142 235.464 21.3913C235.634 21.453 235.773 21.5456 235.896 21.6689C236.02 21.7923 236.112 21.9311 236.189 22.0853C236.251 22.2549 236.297 22.4246 236.297 22.6096C236.297 22.7947 236.266 22.9797 236.189 23.134C236.128 23.3036 236.02 23.4424 235.896 23.5503C235.773 23.6737 235.634 23.7662 235.464 23.8279C235.295 23.8896 235.11 23.9359 234.925 23.9359C234.724 23.9359 234.539 23.905 234.385 23.8279C234.215 23.7662 234.077 23.6737 233.953 23.5503C233.83 23.427 233.737 23.2882 233.66 23.134C233.599 22.9643 233.552 22.7947 233.552 22.6096C233.552 22.4246 233.583 22.2395 233.66 22.0853C233.722 21.9157 233.83 21.7769 233.953 21.6689C234.077 21.5456 234.215 21.453 234.385 21.3913C234.539 21.3142 234.724 21.2834 234.925 21.2834ZM220.614 22.6096C220.614 22.1624 220.907 21.7923 221.385 21.7923C221.847 21.7923 222.14 22.147 222.14 22.6096C222.14 23.0723 221.832 23.4115 221.385 23.4115C220.907 23.4115 220.614 23.0568 220.614 22.6096ZM222.665 22.6096V21.3451H222.11V21.6535C221.94 21.4222 221.678 21.2834 221.308 21.2834C220.598 21.2834 220.043 21.8386 220.043 22.6096C220.043 23.3807 220.598 23.9359 221.308 23.9359C221.662 23.9359 221.925 23.7971 222.11 23.5657V23.8742H222.665V22.6096ZM219.565 23.8742V22.2858C219.565 21.6843 219.18 21.2834 218.563 21.2834C218.239 21.2834 217.9 21.3759 217.668 21.7306C217.499 21.453 217.221 21.2834 216.836 21.2834C216.573 21.2834 216.296 21.3605 216.095 21.6535V21.3451H215.54V23.8742H216.095V22.4708C216.095 22.039 216.342 21.7923 216.712 21.7923C217.082 21.7923 217.267 22.0236 217.267 22.4554V23.8588H217.823V22.4554C217.823 22.0236 218.085 21.7769 218.439 21.7769C218.809 21.7769 218.995 22.0082 218.995 22.44V23.8433H219.565V23.8742Z" fill="#EDEDED"/>
<path d="M236.883 23.6735V23.7352H236.945C236.96 23.7352 236.976 23.7352 236.976 23.7198C236.991 23.7198 236.991 23.7044 236.991 23.689C236.991 23.6735 236.991 23.6735 236.976 23.6735C236.976 23.6735 236.96 23.6581 236.945 23.6581H236.883V23.6735ZM236.945 23.6427C236.976 23.6427 236.991 23.6427 237.006 23.6581C237.022 23.6735 237.037 23.689 237.037 23.7198C237.037 23.7352 237.037 23.7506 237.022 23.7661C237.006 23.7815 236.991 23.7815 236.96 23.7815L237.037 23.874H236.976L236.898 23.7815H236.883V23.874H236.837V23.6427H236.945ZM236.929 23.9511C236.96 23.9511 236.976 23.9511 237.006 23.9357C237.037 23.9203 237.053 23.9049 237.068 23.8894C237.084 23.874 237.099 23.8586 237.114 23.8278C237.13 23.7969 237.13 23.7815 237.13 23.7506C237.13 23.7198 237.13 23.7044 237.114 23.6735C237.099 23.6427 237.084 23.6273 237.068 23.6119C237.053 23.5964 237.037 23.581 237.006 23.5656C236.991 23.5502 236.96 23.5502 236.929 23.5502C236.898 23.5502 236.883 23.5502 236.852 23.5656C236.821 23.581 236.806 23.5964 236.791 23.6119C236.775 23.6273 236.76 23.6581 236.744 23.6735C236.729 23.7044 236.729 23.7198 236.729 23.7506C236.729 23.7815 236.729 23.7969 236.744 23.8278C236.76 23.8586 236.775 23.874 236.791 23.8894C236.806 23.9049 236.837 23.9203 236.852 23.9357C236.883 23.9511 236.898 23.9511 236.929 23.9511ZM236.929 23.5039C236.96 23.5039 236.991 23.5039 237.022 23.5193C237.053 23.5347 237.084 23.5502 237.099 23.5656C237.114 23.581 237.145 23.6119 237.161 23.6427C237.176 23.6735 237.176 23.7044 237.176 23.7352C237.176 23.7661 237.176 23.7969 237.161 23.8278C237.145 23.8586 237.13 23.8894 237.099 23.9049C237.068 23.9203 237.053 23.9511 237.022 23.9665C236.991 23.982 236.96 23.982 236.929 23.982C236.898 23.982 236.852 23.982 236.821 23.9665C236.791 23.9511 236.76 23.9357 236.744 23.9049C236.729 23.8894 236.698 23.8586 236.683 23.8278C236.667 23.7969 236.667 23.7661 236.667 23.7352C236.667 23.7044 236.667 23.6735 236.683 23.6427C236.698 23.6119 236.713 23.581 236.744 23.5656C236.76 23.5502 236.791 23.5193 236.821 23.5193C236.852 23.5039 236.898 23.5039 236.929 23.5039Z" fill="#EDEDED"/>
</g>
<defs>
<clipPath id="clip0_6_696">
<rect width="133" height="21" fill="white" transform="translate(253)"/>
</clipPath>
</defs>
</svg>
